<?xml version="1.0" encoding="UTF-8" standalone="no"?>
<svg
   viewBox="0 0 69.951218 68.68293"
   width="69.951218"
   height="68.68293"
   version="1.1"
   id="svg3"
   sodipodi:docname="svg-with-black-background.svg"
   inkscape:version="1.4.2 (ebf0e940, 2025-05-08)"
   xmlns:inkscape="http://www.inkscape.org/namespaces/inkscape"
   xmlns:sodipodi="http://sodipodi.sourceforge.net/DTD/sodipodi-0.dtd"
   xmlns="http://www.w3.org/2000/svg"
   xmlns:svg="http://www.w3.org/2000/svg">
  <defs
     id="defs3" />
  <sodipodi:namedview
     id="namedview3"
     pagecolor="#ffffff"
     bordercolor="#000000"
     borderopacity="0.25"
     inkscape:showpageshadow="2"
     inkscape:pageopacity="0.0"
     inkscape:pagecheckerboard="0"
     inkscape:deskcolor="#d1d1d1"
     inkscape:zoom="4.1"
     inkscape:cx="31.463415"
     inkscape:cy="30.609756"
     inkscape:window-width="1616"
     inkscape:window-height="542"
     inkscape:window-x="1152"
     inkscape:window-y="470"
     inkscape:window-maximized="0"
     inkscape:current-layer="svg3" />
  <style
     type="text/css"
     id="style1">
    .st0{fill:#71BE47;}
    .st1{fill:#FFD13A;}
    .st2{fill:#FFFFFF;}
  </style>
  <!-- Black square background -->
  <path
     class="st1"
     d="m 10.89756,41.47561 c 2.4,0.7 2.3,3 5.7,4.4 1,0.4 1.4,0.6 5.4,1.4 4,0.8 4.3,-0.9 3.9,-5.1 -0.3,-4.2 -2.9,-15.7 -4.9,-18.3 -2,-2.6 -5.1,-2.7 -5.8,-6.1 -0.8,-3.4 2,-6.200001 5.4,-6.700001 3.4,-0.5 7.2,1.000001 6.8,4.500001 -0.3,3.5 -2.1,3.7 -2,6.3 0.1,2.6 1.3,9.7 2.8,13.5 1.5,3.8 3.4,7.1 5.7,7.2 2.3,0.1 4.8,-5.6 5.7,-8.1 0.8,-2.5 3.8,-9 4,-12.7 0.1,-2 -2.2,-3.1 -1.4,-6.4 0.8,-3.2 3.9,-4.700001 7.3,-3.900001 3.4,0.800001 5.3,3.000001 5.1,6.600001 -0.2,3.6 -2.9,4.5 -4.8,5 -1.9,0.5 -3.4,0.3 -4.4,3.5 -1.9,6.2 -2.4,10.6 -2.1,14.4 0.3,4.4 4.9,3.6 6.9,2.9 2,-0.6 2.4,-1.4 3.1,-2.9 0.8,-1.8 2.8,-4.3 6.4,-4 4.6,0.4 4.9,3.7 4,6.8 -0.9,3.2 -3.6,5.2 -6.7,4.9 -1.9,-0.2 -2,-0.6 -4,-1 -3.4,-0.7 -7.1,1.9 -8.9,4 -1.8,2.1 -3.8,4.6 -7.3,4.6 -3.5,0 -6.9,-1.7 -10,-3.5 -3.1,-1.8 -5.3,-2.7 -8.4,-3 -3.1,-0.3 -3.9,1 -6.1,1.8 -3.2000002,1.3 -5.8999991,0.1 -6.2999991,-4.7 -0.2,-4.4 2.4999998,-6.1 4.8999991,-5.4"
     id="path2" />
</svg>
