<svg xmlns="http://www.w3.org/2000/svg" viewBox="0 0 75 86" width="150" height="172">
  <!-- Black rectangle background -->
  <rect width="75" height="86" fill="black"/>
  
  <style type="text/css">
    .st0{fill:#71BE47;}
    .st1{fill:#FFD13A;}
    .st2{fill:#FFFFFF;}
  </style>
  
  <!-- Group with logo taking up 85% of the space, properly centered -->
  <g transform="translate(12.85, 14.95) scale(0.85)">
    <path class="st0" d="M11,47v2H4v4h5v2H4v6.5H2V47H11z M13,61.5v-3.9c0-3.3,1.5-4.8,2.9-4.8c0.4,0,0.8,0.1,1.1,0.3l0.4-2
    c-0.3-0.1-0.8-0.2-1.3-0.2c-1.1,0-2.4,0.7-3.1,1.9V51h-2v10.5H13z M23.1,59.8c-1.9,0-2.9-1.7-2.9-3.5c0-1.8,1-3.5,2.9-3.5
    s2.9,1.7,2.9,3.5C26,58.1,25,59.8,23.1,59.8 M23.1,50.9c-3.2,0-5.1,2.4-5.1,5.4c0,2.9,1.9,5.4,5.1,5.4s5.1-2.4,5.1-5.4
    C28.3,53.4,26.4,50.9,23.1,50.9 M33.4,56.3c-0.9,0-1.6-0.7-1.6-1.7c0-1,0.7-1.7,1.6-1.7c0.9,0,1.6,0.7,1.6,1.7
    C35,55.6,34.4,56.3,33.4,56.3 M34.1,61.3c1,0,1.7,0.3,1.7,1.3c0,1-0.9,1.6-2.3,1.6c-1.5,0-2.5-0.7-2.5-1.7c0-0.5,0.1-0.9,0.4-1.3
    c0.3,0,0.7,0.1,1,0.1H34.1z M33.4,51.1c-2,0-3.6,1.3-3.6,3.5c0,0.9,0.2,1.6,0.7,2.2c-0.7,0.4-1.2,1.2-1.2,2.1
    c0,0.7,0.2,1.3,0.6,1.6C29.3,61,29,61.7,29,62.6c0,2.3,1.9,3.4,4.5,3.4c2.3,0,4.4-1,4.4-3.6c0-2-1.4-3-3.4-3h-2.2
    c-0.7,0-1-0.2-1-0.8c0-0.4,0.2-0.7,0.5-0.9c0.5,0.2,1,0.3,1.6,0.3c2,0,3.6-1.3,3.6-3.5c0-0.7-0.2-1.2-0.4-1.7L38,52l-0.8-1.5
    l-1.9,1C34.7,51.2,34.1,51.1,33.4,51.1"/>
    <path class="st1" d="M4.8,30.5c2.4,0.7,2.3,3,5.7,4.4c1,0.4,1.4,0.6,5.4,1.4c4,0.8,4.3-0.9,3.9-5.1c-0.3-4.2-2.9-15.7-4.9-18.3
    s-5.1-2.7-5.8-6.1c-0.8-3.4,2-6.2,5.4-6.7c3.4-0.5,7.2,1,6.8,4.5c-0.3,3.5-2.1,3.7-2,6.3c0.1,2.6,1.3,9.7,2.8,13.5
    c1.5,3.8,3.4,7.1,5.7,7.2c2.3,0.1,4.8-5.6,5.7-8.1c0.8-2.5,3.8-9,4-12.7c0.1-2-2.2-3.1-1.4-6.4c0.8-3.2,3.9-4.7,7.3-3.9
    c3.4,0.8,5.3,3,5.1,6.6c-0.2,3.6-2.9,4.5-4.8,5s-3.4,0.3-4.4,3.5c-1.9,6.2-2.4,10.6-2.1,14.4c0.3,4.4,4.9,3.6,6.9,2.9
    c2-0.6,2.4-1.4,3.1-2.9c0.8-1.8,2.8-4.3,6.4-4c4.6,0.4,4.9,3.7,4,6.8C56.7,36,54,38,50.9,37.7c-1.9-0.2-2-0.6-4-1
    c-3.4-0.7-7.1,1.9-8.9,4c-1.8,2.1-3.8,4.6-7.3,4.6c-3.5,0-6.9-1.7-10-3.5c-3.1-1.8-5.3-2.7-8.4-3s-3.9,1-6.1,1.8
    c-3.2,1.3-5.9,0.1-6.3-4.7C-0.3,31.5,2.4,29.8,4.8,30.5"/>
    <path class="st2" d="M41,47l2,0v14.5h-2V47z M49.6,49c2.5,0,5.1,1.3,5.1,5.2s-2.6,5.2-5.1,5.2H48V49H49.6z M46,47v14.5h4.3
    c3.5,0,6.7-2.4,6.7-7.2c0-4.9-3.2-7.2-6.7-7.2H46z"/>
  </g>
</svg>